<svg viewBox="0 0 1300.0 1193" xmlns="http://www.w3.org/2000/svg" font-family="Consolas,monospace" font-size="11">
<rect width="1300.0" height="1193" fill="#0f0f1a"/>
<defs>
  <marker id="arr" markerWidth="6" markerHeight="6" refX="5" refY="3" orient="auto">
    <path d="M0,0 L0,6 L6,3 z" fill="#556"/>
  </marker>
</defs>
<rect x="40" y="40" width="270" height="580" rx="10" fill="#1e3a5f" stroke="#2d5a8e" stroke-width="2" opacity="0.5"/>
<text x="52" y="58" fill="#2d5a8e" font-size="13" font-weight="bold" opacity="0.9">AUTH</text>
<rect x="350" y="40" width="270" height="580" rx="10" fill="#1e4a2d" stroke="#2d7a4a" stroke-width="2" opacity="0.5"/>
<text x="362" y="58" fill="#2d7a4a" font-size="13" font-weight="bold" opacity="0.9">BILLING</text>
<rect x="660" y="40" width="270" height="580" rx="10" fill="#4a1e1e" stroke="#8e2d2d" stroke-width="2" opacity="0.5"/>
<text x="672" y="58" fill="#8e2d2d" font-size="13" font-weight="bold" opacity="0.9">CHILD</text>
<rect x="970" y="40" width="270" height="580" rx="10" fill="#3a1e4a" stroke="#6a2d8e" stroke-width="2" opacity="0.5"/>
<text x="982" y="58" fill="#6a2d8e" font-size="13" font-weight="bold" opacity="0.9">AI</text>
<rect x="40" y="660" width="270" height="580" rx="10" fill="#4a3a1e" stroke="#8e6a2d" stroke-width="2" opacity="0.5"/>
<text x="52" y="678" fill="#8e6a2d" font-size="13" font-weight="bold" opacity="0.9">PARENTAL</text>
<rect x="350" y="660" width="270" height="580" rx="10" fill="#1e3a3a" stroke="#2d7a7a" stroke-width="2" opacity="0.5"/>
<text x="362" y="678" fill="#2d7a7a" font-size="13" font-weight="bold" opacity="0.9">CMS</text>
<rect x="660" y="660" width="270" height="580" rx="10" fill="#2a2a2a" stroke="#555555" stroke-width="2" opacity="0.5"/>
<text x="672" y="678" fill="#555555" font-size="13" font-weight="bold" opacity="0.9">MISC</text>
<line x1="480" y1="154" x2="170" y2="172" stroke="#445566" stroke-width="1.2" stroke-dasharray="4,3" marker-end="url(#arr)" opacity="0.6"/>
<line x1="585" y1="145" x2="170" y2="172" stroke="#445566" stroke-width="1.2" stroke-dasharray="4,3" marker-end="url(#arr)" opacity="0.6"/>
<line x1="480" y1="257" x2="170" y2="172" stroke="#445566" stroke-width="1.2" stroke-dasharray="4,3" marker-end="url(#arr)" opacity="0.6"/>
<line x1="585" y1="257" x2="170" y2="172" stroke="#445566" stroke-width="1.2" stroke-dasharray="4,3" marker-end="url(#arr)" opacity="0.6"/>
<line x1="585" y1="369" x2="170" y2="172" stroke="#445566" stroke-width="1.2" stroke-dasharray="4,3" marker-end="url(#arr)" opacity="0.6"/>
<line x1="790" y1="154" x2="170" y2="172" stroke="#445566" stroke-width="1.2" stroke-dasharray="4,3" marker-end="url(#arr)" opacity="0.6"/>
<line x1="790" y1="774" x2="170" y2="172" stroke="#445566" stroke-width="1.2" stroke-dasharray="4,3" marker-end="url(#arr)" opacity="0.6"/>
<line x1="895" y1="765" x2="170" y2="172" stroke="#445566" stroke-width="1.2" stroke-dasharray="4,3" marker-end="url(#arr)" opacity="0.6"/>
<line x1="790" y1="904" x2="170" y2="172" stroke="#445566" stroke-width="1.2" stroke-dasharray="4,3" marker-end="url(#arr)" opacity="0.6"/>
<line x1="170" y1="765" x2="170" y2="172" stroke="#445566" stroke-width="1.2" stroke-dasharray="4,3" marker-end="url(#arr)" opacity="0.6"/>
<line x1="275" y1="765" x2="170" y2="172" stroke="#445566" stroke-width="1.2" stroke-dasharray="4,3" marker-end="url(#arr)" opacity="0.6"/>
<line x1="1100" y1="284" x2="170" y2="172" stroke="#445566" stroke-width="1.2" stroke-dasharray="4,3" marker-end="url(#arr)" opacity="0.6"/>
<line x1="860" y1="145" x2="790" y2="154" stroke="#445566" stroke-width="1.2" stroke-dasharray="4,3" marker-end="url(#arr)" opacity="0.6"/>
<line x1="930" y1="154" x2="790" y2="154" stroke="#445566" stroke-width="1.2" stroke-dasharray="4,3" marker-end="url(#arr)" opacity="0.6"/>
<line x1="790" y1="284" x2="790" y2="154" stroke="#445566" stroke-width="1.2" stroke-dasharray="4,3" marker-end="url(#arr)" opacity="0.6"/>
<line x1="860" y1="284" x2="790" y2="154" stroke="#445566" stroke-width="1.2" stroke-dasharray="4,3" marker-end="url(#arr)" opacity="0.6"/>
<line x1="930" y1="257" x2="790" y2="154" stroke="#445566" stroke-width="1.2" stroke-dasharray="4,3" marker-end="url(#arr)" opacity="0.6"/>
<line x1="790" y1="369" x2="790" y2="154" stroke="#445566" stroke-width="1.2" stroke-dasharray="4,3" marker-end="url(#arr)" opacity="0.6"/>
<line x1="860" y1="414" x2="790" y2="154" stroke="#445566" stroke-width="1.2" stroke-dasharray="4,3" marker-end="url(#arr)" opacity="0.6"/>
<line x1="930" y1="414" x2="790" y2="154" stroke="#445566" stroke-width="1.2" stroke-dasharray="4,3" marker-end="url(#arr)" opacity="0.6"/>
<line x1="1100" y1="154" x2="790" y2="154" stroke="#445566" stroke-width="1.2" stroke-dasharray="4,3" marker-end="url(#arr)" opacity="0.6"/>
<line x1="1100" y1="284" x2="790" y2="154" stroke="#445566" stroke-width="1.2" stroke-dasharray="4,3" marker-end="url(#arr)" opacity="0.6"/>
<line x1="1100" y1="414" x2="790" y2="154" stroke="#445566" stroke-width="1.2" stroke-dasharray="4,3" marker-end="url(#arr)" opacity="0.6"/>
<line x1="275" y1="765" x2="790" y2="154" stroke="#445566" stroke-width="1.2" stroke-dasharray="4,3" marker-end="url(#arr)" opacity="0.6"/>
<line x1="790" y1="774" x2="790" y2="154" stroke="#445566" stroke-width="1.2" stroke-dasharray="4,3" marker-end="url(#arr)" opacity="0.6"/>
<line x1="585" y1="145" x2="480" y2="154" stroke="#445566" stroke-width="1.2" stroke-dasharray="4,3" marker-end="url(#arr)" opacity="0.6"/>
<line x1="480" y1="257" x2="480" y2="154" stroke="#445566" stroke-width="1.2" stroke-dasharray="4,3" marker-end="url(#arr)" opacity="0.6"/>
<line x1="585" y1="257" x2="480" y2="154" stroke="#445566" stroke-width="1.2" stroke-dasharray="4,3" marker-end="url(#arr)" opacity="0.6"/>
<line x1="480" y1="369" x2="480" y2="154" stroke="#445566" stroke-width="1.2" stroke-dasharray="4,3" marker-end="url(#arr)" opacity="0.6"/>
<line x1="1100" y1="414" x2="1100" y2="284" stroke="#445566" stroke-width="1.2" stroke-dasharray="4,3" marker-end="url(#arr)" opacity="0.6"/>
<line x1="170" y1="904" x2="275" y2="765" stroke="#445566" stroke-width="1.2" stroke-dasharray="4,3" marker-end="url(#arr)" opacity="0.6"/>
<line x1="275" y1="850" x2="275" y2="765" stroke="#445566" stroke-width="1.2" stroke-dasharray="4,3" marker-end="url(#arr)" opacity="0.6"/>
<line x1="170" y1="944" x2="275" y2="765" stroke="#445566" stroke-width="1.2" stroke-dasharray="4,3" marker-end="url(#arr)" opacity="0.6"/>
<line x1="480" y1="931" x2="480" y2="774" stroke="#445566" stroke-width="1.2" stroke-dasharray="4,3" marker-end="url(#arr)" opacity="0.6"/>
<line x1="480" y1="1034" x2="480" y2="931" stroke="#445566" stroke-width="1.2" stroke-dasharray="4,3" marker-end="url(#arr)" opacity="0.6"/>
<line x1="480" y1="1034" x2="480" y2="774" stroke="#445566" stroke-width="1.2" stroke-dasharray="4,3" marker-end="url(#arr)" opacity="0.6"/>
<line x1="170" y1="324" x2="170" y2="230" stroke="#445566" stroke-width="1.2" stroke-dasharray="4,3" marker-end="url(#arr)" opacity="0.6"/>
<line x1="170" y1="324" x2="275" y2="257" stroke="#445566" stroke-width="1.2" stroke-dasharray="4,3" marker-end="url(#arr)" opacity="0.6"/>
<line x1="275" y1="324" x2="275" y2="154" stroke="#445566" stroke-width="1.2" stroke-dasharray="4,3" marker-end="url(#arr)" opacity="0.6"/>
<line x1="275" y1="324" x2="170" y2="230" stroke="#445566" stroke-width="1.2" stroke-dasharray="4,3" marker-end="url(#arr)" opacity="0.6"/>
<line x1="170" y1="544" x2="275" y2="154" stroke="#445566" stroke-width="1.2" stroke-dasharray="4,3" marker-end="url(#arr)" opacity="0.6"/>
<line x1="790" y1="904" x2="275" y2="154" stroke="#445566" stroke-width="1.2" stroke-dasharray="4,3" marker-end="url(#arr)" opacity="0.6"/>
<line x1="895" y1="904" x2="275" y2="154" stroke="#445566" stroke-width="1.2" stroke-dasharray="4,3" marker-end="url(#arr)" opacity="0.6"/>
<line x1="895" y1="904" x2="170" y2="172" stroke="#445566" stroke-width="1.2" stroke-dasharray="4,3" marker-end="url(#arr)" opacity="0.6"/>
<line x1="895" y1="904" x2="790" y2="904" stroke="#445566" stroke-width="1.2" stroke-dasharray="4,3" marker-end="url(#arr)" opacity="0.6"/>
<line x1="480" y1="774" x2="275" y2="154" stroke="#445566" stroke-width="1.2" stroke-dasharray="4,3" marker-end="url(#arr)" opacity="0.6"/>
<line x1="480" y1="931" x2="275" y2="154" stroke="#445566" stroke-width="1.2" stroke-dasharray="4,3" marker-end="url(#arr)" opacity="0.6"/>
<line x1="480" y1="1034" x2="275" y2="154" stroke="#445566" stroke-width="1.2" stroke-dasharray="4,3" marker-end="url(#arr)" opacity="0.6"/>
<line x1="790" y1="989" x2="275" y2="154" stroke="#445566" stroke-width="1.2" stroke-dasharray="4,3" marker-end="url(#arr)" opacity="0.6"/>
<rect x="70" y="95" width="200" height="154" rx="5" fill="#1a1a2e" stroke="#2d5a8e" stroke-width="1.5"/>
<rect x="70" y="95" width="200" height="28" rx="5" fill="#2d5a8e"/>
<rect x="70" y="118" width="200" height="5" fill="#2d5a8e"/>
<text x="170" y="113" text-anchor="middle" fill="white" font-weight="bold" font-size="10">users</text>
<text x="78" y="136" fill="#FFD700" font-weight="bold" font-size="10">id 🔑</text>
<line x1="70" y1="141" x2="270" y2="141" stroke="#333355" stroke-width="0.5"/>
<text x="78" y="154" fill="#a8c8f0" font-weight="normal" font-size="10">email</text>
<line x1="70" y1="159" x2="270" y2="159" stroke="#333355" stroke-width="0.5"/>
<text x="78" y="172" fill="#a8c8f0" font-weight="normal" font-size="10">phone</text>
<line x1="70" y1="177" x2="270" y2="177" stroke="#333355" stroke-width="0.5"/>
<text x="78" y="190" fill="#a8c8f0" font-weight="normal" font-size="10">role</text>
<line x1="70" y1="195" x2="270" y2="195" stroke="#333355" stroke-width="0.5"/>
<text x="78" y="208" fill="#a8c8f0" font-weight="normal" font-size="10">email_verified</text>
<line x1="70" y1="213" x2="270" y2="213" stroke="#333355" stroke-width="0.5"/>
<text x="78" y="226" fill="#a8c8f0" font-weight="normal" font-size="10">is_active</text>
<line x1="70" y1="231" x2="270" y2="231" stroke="#333355" stroke-width="0.5"/>
<text x="78" y="244" fill="#a8c8f0" font-weight="normal" font-size="10">created_at</text>
<rect x="175" y="95" width="200" height="118" rx="5" fill="#1a1a2e" stroke="#2d5a8e" stroke-width="1.5"/>
<rect x="175" y="95" width="200" height="28" rx="5" fill="#2d5a8e"/>
<rect x="175" y="118" width="200" height="5" fill="#2d5a8e"/>
<text x="275" y="113" text-anchor="middle" fill="white" font-weight="bold" font-size="10">admin_users</text>
<text x="183" y="136" fill="#FFD700" font-weight="bold" font-size="10">id 🔑</text>
<line x1="175" y1="141" x2="375" y2="141" stroke="#333355" stroke-width="0.5"/>
<text x="183" y="154" fill="#a8c8f0" font-weight="normal" font-size="10">username</text>
<line x1="175" y1="159" x2="375" y2="159" stroke="#333355" stroke-width="0.5"/>
<text x="183" y="172" fill="#a8c8f0" font-weight="normal" font-size="10">email</text>
<line x1="175" y1="177" x2="375" y2="177" stroke="#333355" stroke-width="0.5"/>
<text x="183" y="190" fill="#a8c8f0" font-weight="normal" font-size="10">is_active</text>
<line x1="175" y1="195" x2="375" y2="195" stroke="#333355" stroke-width="0.5"/>
<text x="183" y="208" fill="#a8c8f0" font-weight="normal" font-size="10">created_at</text>
<rect x="70" y="189" width="200" height="82" rx="5" fill="#1a1a2e" stroke="#2d5a8e" stroke-width="1.5"/>
<rect x="70" y="189" width="200" height="28" rx="5" fill="#2d5a8e"/>
<rect x="70" y="212" width="200" height="5" fill="#2d5a8e"/>
<text x="170" y="207" text-anchor="middle" fill="white" font-weight="bold" font-size="10">roles</text>
<text x="78" y="230" fill="#FFD700" font-weight="bold" font-size="10">id 🔑</text>
<line x1="70" y1="235" x2="270" y2="235" stroke="#333355" stroke-width="0.5"/>
<text x="78" y="248" fill="#a8c8f0" font-weight="normal" font-size="10">name</text>
<line x1="70" y1="253" x2="270" y2="253" stroke="#333355" stroke-width="0.5"/>
<text x="78" y="266" fill="#a8c8f0" font-weight="normal" font-size="10">description</text>
<rect x="175" y="207" width="200" height="100" rx="5" fill="#1a1a2e" stroke="#2d5a8e" stroke-width="1.5"/>
<rect x="175" y="207" width="200" height="28" rx="5" fill="#2d5a8e"/>
<rect x="175" y="230" width="200" height="5" fill="#2d5a8e"/>
<text x="275" y="225" text-anchor="middle" fill="white" font-weight="bold" font-size="10">permissions</text>
<text x="183" y="248" fill="#FFD700" font-weight="bold" font-size="10">id 🔑</text>
<line x1="175" y1="253" x2="375" y2="253" stroke="#333355" stroke-width="0.5"/>
<text x="183" y="266" fill="#a8c8f0" font-weight="normal" font-size="10">name</text>
<line x1="175" y1="271" x2="375" y2="271" stroke="#333355" stroke-width="0.5"/>
<text x="183" y="284" fill="#a8c8f0" font-weight="normal" font-size="10">resource</text>
<line x1="175" y1="289" x2="375" y2="289" stroke="#333355" stroke-width="0.5"/>
<text x="183" y="302" fill="#a8c8f0" font-weight="normal" font-size="10">action</text>
<rect x="70" y="283" width="200" height="82" rx="5" fill="#1a1a2e" stroke="#2d5a8e" stroke-width="1.5"/>
<rect x="70" y="283" width="200" height="28" rx="5" fill="#2d5a8e"/>
<rect x="70" y="306" width="200" height="5" fill="#2d5a8e"/>
<text x="170" y="301" text-anchor="middle" fill="white" font-weight="bold" font-size="10">role_permissions</text>
<text x="78" y="324" fill="#FFD700" font-weight="bold" font-size="10">id 🔑</text>
<line x1="70" y1="329" x2="270" y2="329" stroke="#333355" stroke-width="0.5"/>
<text x="78" y="342" fill="#88CCFF" font-weight="normal" font-size="10">role_id →</text>
<line x1="70" y1="347" x2="270" y2="347" stroke="#333355" stroke-width="0.5"/>
<text x="78" y="360" fill="#88CCFF" font-weight="normal" font-size="10">permission_id →</text>
<rect x="175" y="283" width="200" height="82" rx="5" fill="#1a1a2e" stroke="#2d5a8e" stroke-width="1.5"/>
<rect x="175" y="283" width="200" height="28" rx="5" fill="#2d5a8e"/>
<rect x="175" y="306" width="200" height="5" fill="#2d5a8e"/>
<text x="275" y="301" text-anchor="middle" fill="white" font-weight="bold" font-size="10">admin_user_roles</text>
<text x="183" y="324" fill="#FFD700" font-weight="bold" font-size="10">id 🔑</text>
<line x1="175" y1="329" x2="375" y2="329" stroke="#333355" stroke-width="0.5"/>
<text x="183" y="342" fill="#88CCFF" font-weight="normal" font-size="10">admin_user_id →</text>
<line x1="175" y1="347" x2="375" y2="347" stroke="#333355" stroke-width="0.5"/>
<text x="183" y="360" fill="#88CCFF" font-weight="normal" font-size="10">role_id →</text>
<rect x="70" y="485" width="200" height="118" rx="5" fill="#1a1a2e" stroke="#2d5a8e" stroke-width="1.5"/>
<rect x="70" y="485" width="200" height="28" rx="5" fill="#2d5a8e"/>
<rect x="70" y="508" width="200" height="5" fill="#2d5a8e"/>
<text x="170" y="503" text-anchor="middle" fill="white" font-weight="bold" font-size="10">audit_logs</text>
<text x="78" y="526" fill="#FFD700" font-weight="bold" font-size="10">id 🔑</text>
<line x1="70" y1="531" x2="270" y2="531" stroke="#333355" stroke-width="0.5"/>
<text x="78" y="544" fill="#88CCFF" font-weight="normal" font-size="10">admin_user_id →</text>
<line x1="70" y1="549" x2="270" y2="549" stroke="#333355" stroke-width="0.5"/>
<text x="78" y="562" fill="#a8c8f0" font-weight="normal" font-size="10">action</text>
<line x1="70" y1="567" x2="270" y2="567" stroke="#333355" stroke-width="0.5"/>
<text x="78" y="580" fill="#a8c8f0" font-weight="normal" font-size="10">resource</text>
<line x1="70" y1="585" x2="270" y2="585" stroke="#333355" stroke-width="0.5"/>
<text x="78" y="598" fill="#a8c8f0" font-weight="normal" font-size="10">created_at</text>
<rect x="380" y="95" width="200" height="118" rx="5" fill="#1a1a2e" stroke="#2d7a4a" stroke-width="1.5"/>
<rect x="380" y="95" width="200" height="28" rx="5" fill="#2d7a4a"/>
<rect x="380" y="118" width="200" height="5" fill="#2d7a4a"/>
<text x="480" y="113" text-anchor="middle" fill="white" font-weight="bold" font-size="10">subscription_profiles</text>
<text x="388" y="136" fill="#FFD700" font-weight="bold" font-size="10">id 🔑</text>
<line x1="380" y1="141" x2="580" y2="141" stroke="#333355" stroke-width="0.5"/>
<text x="388" y="154" fill="#88CCFF" font-weight="normal" font-size="10">user_id →</text>
<line x1="380" y1="159" x2="580" y2="159" stroke="#333355" stroke-width="0.5"/>
<text x="388" y="172" fill="#a0e0b8" font-weight="normal" font-size="10">plan</text>
<line x1="380" y1="177" x2="580" y2="177" stroke="#333355" stroke-width="0.5"/>
<text x="388" y="190" fill="#a0e0b8" font-weight="normal" font-size="10">status</text>
<line x1="380" y1="195" x2="580" y2="195" stroke="#333355" stroke-width="0.5"/>
<text x="388" y="208" fill="#a0e0b8" font-weight="normal" font-size="10">stripe_customer_id</text>
<rect x="485" y="95" width="200" height="100" rx="5" fill="#1a1a2e" stroke="#2d7a4a" stroke-width="1.5"/>
<rect x="485" y="95" width="200" height="28" rx="5" fill="#2d7a4a"/>
<rect x="485" y="118" width="200" height="5" fill="#2d7a4a"/>
<text x="585" y="113" text-anchor="middle" fill="white" font-weight="bold" font-size="10">subscription_events</text>
<text x="493" y="136" fill="#FFD700" font-weight="bold" font-size="10">id 🔑</text>
<line x1="485" y1="141" x2="685" y2="141" stroke="#333355" stroke-width="0.5"/>
<text x="493" y="154" fill="#88CCFF" font-weight="normal" font-size="10">user_id →</text>
<line x1="485" y1="159" x2="685" y2="159" stroke="#333355" stroke-width="0.5"/>
<text x="493" y="172" fill="#88CCFF" font-weight="normal" font-size="10">subscription_profile_id →</text>
<line x1="485" y1="177" x2="685" y2="177" stroke="#333355" stroke-width="0.5"/>
<text x="493" y="190" fill="#a0e0b8" font-weight="normal" font-size="10">event_type</text>
<rect x="380" y="207" width="200" height="100" rx="5" fill="#1a1a2e" stroke="#2d7a4a" stroke-width="1.5"/>
<rect x="380" y="207" width="200" height="28" rx="5" fill="#2d7a4a"/>
<rect x="380" y="230" width="200" height="5" fill="#2d7a4a"/>
<text x="480" y="225" text-anchor="middle" fill="white" font-weight="bold" font-size="10">billing_transactions</text>
<text x="388" y="248" fill="#FFD700" font-weight="bold" font-size="10">id 🔑</text>
<line x1="380" y1="253" x2="580" y2="253" stroke="#333355" stroke-width="0.5"/>
<text x="388" y="266" fill="#88CCFF" font-weight="normal" font-size="10">user_id →</text>
<line x1="380" y1="271" x2="580" y2="271" stroke="#333355" stroke-width="0.5"/>
<text x="388" y="284" fill="#88CCFF" font-weight="normal" font-size="10">subscription_profile_id →</text>
<line x1="380" y1="289" x2="580" y2="289" stroke="#333355" stroke-width="0.5"/>
<text x="388" y="302" fill="#a0e0b8" font-weight="normal" font-size="10">amount</text>
<rect x="485" y="207" width="200" height="100" rx="5" fill="#1a1a2e" stroke="#2d7a4a" stroke-width="1.5"/>
<rect x="485" y="207" width="200" height="28" rx="5" fill="#2d7a4a"/>
<rect x="485" y="230" width="200" height="5" fill="#2d7a4a"/>
<text x="585" y="225" text-anchor="middle" fill="white" font-weight="bold" font-size="10">payment_attempts</text>
<text x="493" y="248" fill="#FFD700" font-weight="bold" font-size="10">id 🔑</text>
<line x1="485" y1="253" x2="685" y2="253" stroke="#333355" stroke-width="0.5"/>
<text x="493" y="266" fill="#88CCFF" font-weight="normal" font-size="10">user_id →</text>
<line x1="485" y1="271" x2="685" y2="271" stroke="#333355" stroke-width="0.5"/>
<text x="493" y="284" fill="#88CCFF" font-weight="normal" font-size="10">subscription_profile_id →</text>
<line x1="485" y1="289" x2="685" y2="289" stroke="#333355" stroke-width="0.5"/>
<text x="493" y="302" fill="#a0e0b8" font-weight="normal" font-size="10">status</text>
<rect x="380" y="319" width="200" height="100" rx="5" fill="#1a1a2e" stroke="#2d7a4a" stroke-width="1.5"/>
<rect x="380" y="319" width="200" height="28" rx="5" fill="#2d7a4a"/>
<rect x="380" y="342" width="200" height="5" fill="#2d7a4a"/>
<text x="480" y="337" text-anchor="middle" fill="white" font-weight="bold" font-size="10">payment_webhook_events</text>
<text x="388" y="360" fill="#FFD700" font-weight="bold" font-size="10">id 🔑</text>
<line x1="380" y1="365" x2="580" y2="365" stroke="#333355" stroke-width="0.5"/>
<text x="388" y="378" fill="#88CCFF" font-weight="normal" font-size="10">subscription_profile_id →</text>
<line x1="380" y1="383" x2="580" y2="383" stroke="#333355" stroke-width="0.5"/>
<text x="388" y="396" fill="#a0e0b8" font-weight="normal" font-size="10">event_type</text>
<line x1="380" y1="401" x2="580" y2="401" stroke="#333355" stroke-width="0.5"/>
<text x="388" y="414" fill="#a0e0b8" font-weight="normal" font-size="10">payload</text>
<rect x="485" y="319" width="200" height="100" rx="5" fill="#1a1a2e" stroke="#2d7a4a" stroke-width="1.5"/>
<rect x="485" y="319" width="200" height="28" rx="5" fill="#2d7a4a"/>
<rect x="485" y="342" width="200" height="5" fill="#2d7a4a"/>
<text x="585" y="337" text-anchor="middle" fill="white" font-weight="bold" font-size="10">payment_methods</text>
<text x="493" y="360" fill="#FFD700" font-weight="bold" font-size="10">id 🔑</text>
<line x1="485" y1="365" x2="685" y2="365" stroke="#333355" stroke-width="0.5"/>
<text x="493" y="378" fill="#88CCFF" font-weight="normal" font-size="10">user_id →</text>
<line x1="485" y1="383" x2="685" y2="383" stroke="#333355" stroke-width="0.5"/>
<text x="493" y="396" fill="#a0e0b8" font-weight="normal" font-size="10">type</text>
<line x1="485" y1="401" x2="685" y2="401" stroke="#333355" stroke-width="0.5"/>
<text x="493" y="414" fill="#a0e0b8" font-weight="normal" font-size="10">is_default</text>
<rect x="690" y="95" width="200" height="118" rx="5" fill="#1a1a2e" stroke="#8e2d2d" stroke-width="1.5"/>
<rect x="690" y="95" width="200" height="28" rx="5" fill="#8e2d2d"/>
<rect x="690" y="118" width="200" height="5" fill="#8e2d2d"/>
<text x="790" y="113" text-anchor="middle" fill="white" font-weight="bold" font-size="10">child_profiles</text>
<text x="698" y="136" fill="#FFD700" font-weight="bold" font-size="10">id 🔑</text>
<line x1="690" y1="141" x2="890" y2="141" stroke="#333355" stroke-width="0.5"/>
<text x="698" y="154" fill="#88CCFF" font-weight="normal" font-size="10">parent_id →</text>
<line x1="690" y1="159" x2="890" y2="159" stroke="#333355" stroke-width="0.5"/>
<text x="698" y="172" fill="#f0a8a8" font-weight="normal" font-size="10">name</text>
<line x1="690" y1="177" x2="890" y2="177" stroke="#333355" stroke-width="0.5"/>
<text x="698" y="190" fill="#f0a8a8" font-weight="normal" font-size="10">date_of_birth</text>
<line x1="690" y1="195" x2="890" y2="195" stroke="#333355" stroke-width="0.5"/>
<text x="698" y="208" fill="#f0a8a8" font-weight="normal" font-size="10">picture_password_hash</text>
<rect x="760" y="95" width="200" height="100" rx="5" fill="#1a1a2e" stroke="#8e2d2d" stroke-width="1.5"/>
<rect x="760" y="95" width="200" height="28" rx="5" fill="#8e2d2d"/>
<rect x="760" y="118" width="200" height="5" fill="#8e2d2d"/>
<text x="860" y="113" text-anchor="middle" fill="white" font-weight="bold" font-size="10">child_session_logs</text>
<text x="768" y="136" fill="#FFD700" font-weight="bold" font-size="10">id 🔑</text>
<line x1="760" y1="141" x2="960" y2="141" stroke="#333355" stroke-width="0.5"/>
<text x="768" y="154" fill="#88CCFF" font-weight="normal" font-size="10">child_id →</text>
<line x1="760" y1="159" x2="960" y2="159" stroke="#333355" stroke-width="0.5"/>
<text x="768" y="172" fill="#f0a8a8" font-weight="normal" font-size="10">login_at</text>
<line x1="760" y1="177" x2="960" y2="177" stroke="#333355" stroke-width="0.5"/>
<text x="768" y="190" fill="#f0a8a8" font-weight="normal" font-size="10">logout_at</text>
<rect x="830" y="95" width="200" height="118" rx="5" fill="#1a1a2e" stroke="#8e2d2d" stroke-width="1.5"/>
<rect x="830" y="95" width="200" height="28" rx="5" fill="#8e2d2d"/>
<rect x="830" y="118" width="200" height="5" fill="#8e2d2d"/>
<text x="930" y="113" text-anchor="middle" fill="white" font-weight="bold" font-size="10">child_activity_events</text>
<text x="838" y="136" fill="#FFD700" font-weight="bold" font-size="10">id 🔑</text>
<line x1="830" y1="141" x2="1030" y2="141" stroke="#333355" stroke-width="0.5"/>
<text x="838" y="154" fill="#88CCFF" font-weight="normal" font-size="10">child_id →</text>
<line x1="830" y1="159" x2="1030" y2="159" stroke="#333355" stroke-width="0.5"/>
<text x="838" y="172" fill="#f0a8a8" font-weight="normal" font-size="10">event_type</text>
<line x1="830" y1="177" x2="1030" y2="177" stroke="#333355" stroke-width="0.5"/>
<text x="838" y="190" fill="#f0a8a8" font-weight="normal" font-size="10">content_id</text>
<line x1="830" y1="195" x2="1030" y2="195" stroke="#333355" stroke-width="0.5"/>
<text x="838" y="208" fill="#f0a8a8" font-weight="normal" font-size="10">created_at</text>
<rect x="690" y="225" width="200" height="118" rx="5" fill="#1a1a2e" stroke="#8e2d2d" stroke-width="1.5"/>
<rect x="690" y="225" width="200" height="28" rx="5" fill="#8e2d2d"/>
<rect x="690" y="248" width="200" height="5" fill="#8e2d2d"/>
<text x="790" y="243" text-anchor="middle" fill="white" font-weight="bold" font-size="10">activity_sessions</text>
<text x="698" y="266" fill="#FFD700" font-weight="bold" font-size="10">id 🔑</text>
<line x1="690" y1="271" x2="890" y2="271" stroke="#333355" stroke-width="0.5"/>
<text x="698" y="284" fill="#88CCFF" font-weight="normal" font-size="10">child_id →</text>
<line x1="690" y1="289" x2="890" y2="289" stroke="#333355" stroke-width="0.5"/>
<text x="698" y="302" fill="#f0a8a8" font-weight="normal" font-size="10">started_at</text>
<line x1="690" y1="307" x2="890" y2="307" stroke="#333355" stroke-width="0.5"/>
<text x="698" y="320" fill="#f0a8a8" font-weight="normal" font-size="10">ended_at</text>
<line x1="690" y1="325" x2="890" y2="325" stroke="#333355" stroke-width="0.5"/>
<text x="698" y="338" fill="#f0a8a8" font-weight="normal" font-size="10">duration_seconds</text>
<rect x="760" y="225" width="200" height="118" rx="5" fill="#1a1a2e" stroke="#8e2d2d" stroke-width="1.5"/>
<rect x="760" y="225" width="200" height="28" rx="5" fill="#8e2d2d"/>
<rect x="760" y="248" width="200" height="5" fill="#8e2d2d"/>
<text x="860" y="243" text-anchor="middle" fill="white" font-weight="bold" font-size="10">lesson_progress</text>
<text x="768" y="266" fill="#FFD700" font-weight="bold" font-size="10">id 🔑</text>
<line x1="760" y1="271" x2="960" y2="271" stroke="#333355" stroke-width="0.5"/>
<text x="768" y="284" fill="#88CCFF" font-weight="normal" font-size="10">child_id →</text>
<line x1="760" y1="289" x2="960" y2="289" stroke="#333355" stroke-width="0.5"/>
<text x="768" y="302" fill="#f0a8a8" font-weight="normal" font-size="10">content_id</text>
<line x1="760" y1="307" x2="960" y2="307" stroke="#333355" stroke-width="0.5"/>
<text x="768" y="320" fill="#f0a8a8" font-weight="normal" font-size="10">progress_percent</text>
<line x1="760" y1="325" x2="960" y2="325" stroke="#333355" stroke-width="0.5"/>
<text x="768" y="338" fill="#f0a8a8" font-weight="normal" font-size="10">completed</text>
<rect x="830" y="207" width="200" height="100" rx="5" fill="#1a1a2e" stroke="#8e2d2d" stroke-width="1.5"/>
<rect x="830" y="207" width="200" height="28" rx="5" fill="#8e2d2d"/>
<rect x="830" y="230" width="200" height="5" fill="#8e2d2d"/>
<text x="930" y="225" text-anchor="middle" fill="white" font-weight="bold" font-size="10">child_mood_entries</text>
<text x="838" y="248" fill="#FFD700" font-weight="bold" font-size="10">id 🔑</text>
<line x1="830" y1="253" x2="1030" y2="253" stroke="#333355" stroke-width="0.5"/>
<text x="838" y="266" fill="#88CCFF" font-weight="normal" font-size="10">child_id →</text>
<line x1="830" y1="271" x2="1030" y2="271" stroke="#333355" stroke-width="0.5"/>
<text x="838" y="284" fill="#f0a8a8" font-weight="normal" font-size="10">mood</text>
<line x1="830" y1="289" x2="1030" y2="289" stroke="#333355" stroke-width="0.5"/>
<text x="838" y="302" fill="#f0a8a8" font-weight="normal" font-size="10">recorded_at</text>
<rect x="690" y="319" width="200" height="100" rx="5" fill="#1a1a2e" stroke="#8e2d2d" stroke-width="1.5"/>
<rect x="690" y="319" width="200" height="28" rx="5" fill="#8e2d2d"/>
<rect x="690" y="342" width="200" height="5" fill="#8e2d2d"/>
<text x="790" y="337" text-anchor="middle" fill="white" font-weight="bold" font-size="10">reward_redemptions</text>
<text x="698" y="360" fill="#FFD700" font-weight="bold" font-size="10">id 🔑</text>
<line x1="690" y1="365" x2="890" y2="365" stroke="#333355" stroke-width="0.5"/>
<text x="698" y="378" fill="#88CCFF" font-weight="normal" font-size="10">child_id →</text>
<line x1="690" y1="383" x2="890" y2="383" stroke="#333355" stroke-width="0.5"/>
<text x="698" y="396" fill="#f0a8a8" font-weight="normal" font-size="10">reward_type</text>
<line x1="690" y1="401" x2="890" y2="401" stroke="#333355" stroke-width="0.5"/>
<text x="698" y="414" fill="#f0a8a8" font-weight="normal" font-size="10">redeemed_at</text>
<rect x="760" y="355" width="200" height="118" rx="5" fill="#1a1a2e" stroke="#8e2d2d" stroke-width="1.5"/>
<rect x="760" y="355" width="200" height="28" rx="5" fill="#8e2d2d"/>
<rect x="760" y="378" width="200" height="5" fill="#8e2d2d"/>
<text x="860" y="373" text-anchor="middle" fill="white" font-weight="bold" font-size="10">screen_time_logs</text>
<text x="768" y="396" fill="#FFD700" font-weight="bold" font-size="10">id 🔑</text>
<line x1="760" y1="401" x2="960" y2="401" stroke="#333355" stroke-width="0.5"/>
<text x="768" y="414" fill="#88CCFF" font-weight="normal" font-size="10">child_id →</text>
<line x1="760" y1="419" x2="960" y2="419" stroke="#333355" stroke-width="0.5"/>
<text x="768" y="432" fill="#f0a8a8" font-weight="normal" font-size="10">date</text>
<line x1="760" y1="437" x2="960" y2="437" stroke="#333355" stroke-width="0.5"/>
<text x="768" y="450" fill="#f0a8a8" font-weight="normal" font-size="10">minutes_used</text>
<line x1="760" y1="455" x2="960" y2="455" stroke="#333355" stroke-width="0.5"/>
<text x="768" y="468" fill="#f0a8a8" font-weight="normal" font-size="10">limit_minutes</text>
<rect x="830" y="355" width="200" height="118" rx="5" fill="#1a1a2e" stroke="#8e2d2d" stroke-width="1.5"/>
<rect x="830" y="355" width="200" height="28" rx="5" fill="#8e2d2d"/>
<rect x="830" y="378" width="200" height="5" fill="#8e2d2d"/>
<text x="930" y="373" text-anchor="middle" fill="white" font-weight="bold" font-size="10">child_daily_activity_s..</text>
<text x="838" y="396" fill="#FFD700" font-weight="bold" font-size="10">id 🔑</text>
<line x1="830" y1="401" x2="1030" y2="401" stroke="#333355" stroke-width="0.5"/>
<text x="838" y="414" fill="#88CCFF" font-weight="normal" font-size="10">child_id →</text>
<line x1="830" y1="419" x2="1030" y2="419" stroke="#333355" stroke-width="0.5"/>
<text x="838" y="432" fill="#f0a8a8" font-weight="normal" font-size="10">date</text>
<line x1="830" y1="437" x2="1030" y2="437" stroke="#333355" stroke-width="0.5"/>
<text x="838" y="450" fill="#f0a8a8" font-weight="normal" font-size="10">total_minutes</text>
<line x1="830" y1="455" x2="1030" y2="455" stroke="#333355" stroke-width="0.5"/>
<text x="838" y="468" fill="#f0a8a8" font-weight="normal" font-size="10">lessons_completed</text>
<rect x="1000" y="95" width="200" height="118" rx="5" fill="#1a1a2e" stroke="#6a2d8e" stroke-width="1.5"/>
<rect x="1000" y="95" width="200" height="28" rx="5" fill="#6a2d8e"/>
<rect x="1000" y="118" width="200" height="5" fill="#6a2d8e"/>
<text x="1100" y="113" text-anchor="middle" fill="white" font-weight="bold" font-size="10">ai_interactions</text>
<text x="1008" y="136" fill="#FFD700" font-weight="bold" font-size="10">id 🔑</text>
<line x1="1000" y1="141" x2="1200" y2="141" stroke="#333355" stroke-width="0.5"/>
<text x="1008" y="154" fill="#88CCFF" font-weight="normal" font-size="10">child_id →</text>
<line x1="1000" y1="159" x2="1200" y2="159" stroke="#333355" stroke-width="0.5"/>
<text x="1008" y="172" fill="#c8a8f0" font-weight="normal" font-size="10">input_text</text>
<line x1="1000" y1="177" x2="1200" y2="177" stroke="#333355" stroke-width="0.5"/>
<text x="1008" y="190" fill="#c8a8f0" font-weight="normal" font-size="10">response_text</text>
<line x1="1000" y1="195" x2="1200" y2="195" stroke="#333355" stroke-width="0.5"/>
<text x="1008" y="208" fill="#c8a8f0" font-weight="normal" font-size="10">created_at</text>
<rect x="1000" y="225" width="200" height="118" rx="5" fill="#1a1a2e" stroke="#6a2d8e" stroke-width="1.5"/>
<rect x="1000" y="225" width="200" height="28" rx="5" fill="#6a2d8e"/>
<rect x="1000" y="248" width="200" height="5" fill="#6a2d8e"/>
<text x="1100" y="243" text-anchor="middle" fill="white" font-weight="bold" font-size="10">ai_buddy_sessions</text>
<text x="1008" y="266" fill="#FFD700" font-weight="bold" font-size="10">id 🔑</text>
<line x1="1000" y1="271" x2="1200" y2="271" stroke="#333355" stroke-width="0.5"/>
<text x="1008" y="284" fill="#88CCFF" font-weight="normal" font-size="10">child_id →</text>
<line x1="1000" y1="289" x2="1200" y2="289" stroke="#333355" stroke-width="0.5"/>
<text x="1008" y="302" fill="#88CCFF" font-weight="normal" font-size="10">parent_user_id →</text>
<line x1="1000" y1="307" x2="1200" y2="307" stroke="#333355" stroke-width="0.5"/>
<text x="1008" y="320" fill="#c8a8f0" font-weight="normal" font-size="10">started_at</text>
<line x1="1000" y1="325" x2="1200" y2="325" stroke="#333355" stroke-width="0.5"/>
<text x="1008" y="338" fill="#c8a8f0" font-weight="normal" font-size="10">ended_at</text>
<rect x="1000" y="355" width="200" height="118" rx="5" fill="#1a1a2e" stroke="#6a2d8e" stroke-width="1.5"/>
<rect x="1000" y="355" width="200" height="28" rx="5" fill="#6a2d8e"/>
<rect x="1000" y="378" width="200" height="5" fill="#6a2d8e"/>
<text x="1100" y="373" text-anchor="middle" fill="white" font-weight="bold" font-size="10">ai_buddy_messages</text>
<text x="1008" y="396" fill="#FFD700" font-weight="bold" font-size="10">id 🔑</text>
<line x1="1000" y1="401" x2="1200" y2="401" stroke="#333355" stroke-width="0.5"/>
<text x="1008" y="414" fill="#88CCFF" font-weight="normal" font-size="10">session_id →</text>
<line x1="1000" y1="419" x2="1200" y2="419" stroke="#333355" stroke-width="0.5"/>
<text x="1008" y="432" fill="#88CCFF" font-weight="normal" font-size="10">child_id →</text>
<line x1="1000" y1="437" x2="1200" y2="437" stroke="#333355" stroke-width="0.5"/>
<text x="1008" y="450" fill="#c8a8f0" font-weight="normal" font-size="10">role</text>
<line x1="1000" y1="455" x2="1200" y2="455" stroke="#333355" stroke-width="0.5"/>
<text x="1008" y="468" fill="#c8a8f0" font-weight="normal" font-size="10">content</text>
<rect x="70" y="715" width="200" height="100" rx="5" fill="#1a1a2e" stroke="#8e6a2d" stroke-width="1.5"/>
<rect x="70" y="715" width="200" height="28" rx="5" fill="#8e6a2d"/>
<rect x="70" y="738" width="200" height="5" fill="#8e6a2d"/>
<text x="170" y="733" text-anchor="middle" fill="white" font-weight="bold" font-size="10">parental_controls</text>
<text x="78" y="756" fill="#FFD700" font-weight="bold" font-size="10">id 🔑</text>
<line x1="70" y1="761" x2="270" y2="761" stroke="#333355" stroke-width="0.5"/>
<text x="78" y="774" fill="#88CCFF" font-weight="normal" font-size="10">user_id →</text>
<line x1="70" y1="779" x2="270" y2="779" stroke="#333355" stroke-width="0.5"/>
<text x="78" y="792" fill="#f0d8a8" font-weight="normal" font-size="10">daily_limit_minutes</text>
<line x1="70" y1="797" x2="270" y2="797" stroke="#333355" stroke-width="0.5"/>
<text x="78" y="810" fill="#f0d8a8" font-weight="normal" font-size="10">content_rating</text>
<rect x="175" y="715" width="200" height="100" rx="5" fill="#1a1a2e" stroke="#8e6a2d" stroke-width="1.5"/>
<rect x="175" y="715" width="200" height="28" rx="5" fill="#8e6a2d"/>
<rect x="175" y="738" width="200" height="5" fill="#8e6a2d"/>
<text x="275" y="733" text-anchor="middle" fill="white" font-weight="bold" font-size="10">child_parental_control..</text>
<text x="183" y="756" fill="#FFD700" font-weight="bold" font-size="10">id 🔑</text>
<line x1="175" y1="761" x2="375" y2="761" stroke="#333355" stroke-width="0.5"/>
<text x="183" y="774" fill="#88CCFF" font-weight="normal" font-size="10">user_id →</text>
<line x1="175" y1="779" x2="375" y2="779" stroke="#333355" stroke-width="0.5"/>
<text x="183" y="792" fill="#88CCFF" font-weight="normal" font-size="10">child_id →</text>
<line x1="175" y1="797" x2="375" y2="797" stroke="#333355" stroke-width="0.5"/>
<text x="183" y="810" fill="#f0d8a8" font-weight="normal" font-size="10">daily_limit_minutes</text>
<rect x="70" y="845" width="200" height="118" rx="5" fill="#1a1a2e" stroke="#8e6a2d" stroke-width="1.5"/>
<rect x="70" y="845" width="200" height="28" rx="5" fill="#8e6a2d"/>
<rect x="70" y="868" width="200" height="5" fill="#8e6a2d"/>
<text x="170" y="863" text-anchor="middle" fill="white" font-weight="bold" font-size="10">child_schedule_rules</text>
<text x="78" y="886" fill="#FFD700" font-weight="bold" font-size="10">id 🔑</text>
<line x1="70" y1="891" x2="270" y2="891" stroke="#333355" stroke-width="0.5"/>
<text x="78" y="904" fill="#88CCFF" font-weight="normal" font-size="10">setting_id →</text>
<line x1="70" y1="909" x2="270" y2="909" stroke="#333355" stroke-width="0.5"/>
<text x="78" y="922" fill="#f0d8a8" font-weight="normal" font-size="10">day_of_week</text>
<line x1="70" y1="927" x2="270" y2="927" stroke="#333355" stroke-width="0.5"/>
<text x="78" y="940" fill="#f0d8a8" font-weight="normal" font-size="10">start_time</text>
<line x1="70" y1="945" x2="270" y2="945" stroke="#333355" stroke-width="0.5"/>
<text x="78" y="958" fill="#f0d8a8" font-weight="normal" font-size="10">end_time</text>
<rect x="175" y="809" width="200" height="82" rx="5" fill="#1a1a2e" stroke="#8e6a2d" stroke-width="1.5"/>
<rect x="175" y="809" width="200" height="28" rx="5" fill="#8e6a2d"/>
<rect x="175" y="832" width="200" height="5" fill="#8e6a2d"/>
<text x="275" y="827" text-anchor="middle" fill="white" font-weight="bold" font-size="10">child_blocked_apps</text>
<text x="183" y="850" fill="#FFD700" font-weight="bold" font-size="10">id 🔑</text>
<line x1="175" y1="855" x2="375" y2="855" stroke="#333355" stroke-width="0.5"/>
<text x="183" y="868" fill="#88CCFF" font-weight="normal" font-size="10">setting_id →</text>
<line x1="175" y1="873" x2="375" y2="873" stroke="#333355" stroke-width="0.5"/>
<text x="183" y="886" fill="#f0d8a8" font-weight="normal" font-size="10">app_name</text>
<rect x="70" y="903" width="200" height="82" rx="5" fill="#1a1a2e" stroke="#8e6a2d" stroke-width="1.5"/>
<rect x="70" y="903" width="200" height="28" rx="5" fill="#8e6a2d"/>
<rect x="70" y="926" width="200" height="5" fill="#8e6a2d"/>
<text x="170" y="921" text-anchor="middle" fill="white" font-weight="bold" font-size="10">child_blocked_sites</text>
<text x="78" y="944" fill="#FFD700" font-weight="bold" font-size="10">id 🔑</text>
<line x1="70" y1="949" x2="270" y2="949" stroke="#333355" stroke-width="0.5"/>
<text x="78" y="962" fill="#88CCFF" font-weight="normal" font-size="10">setting_id →</text>
<line x1="70" y1="967" x2="270" y2="967" stroke="#333355" stroke-width="0.5"/>
<text x="78" y="980" fill="#f0d8a8" font-weight="normal" font-size="10">domain</text>
<rect x="380" y="715" width="200" height="118" rx="5" fill="#1a1a2e" stroke="#2d7a7a" stroke-width="1.5"/>
<rect x="380" y="715" width="200" height="28" rx="5" fill="#2d7a7a"/>
<rect x="380" y="738" width="200" height="5" fill="#2d7a7a"/>
<text x="480" y="733" text-anchor="middle" fill="white" font-weight="bold" font-size="10">categories</text>
<text x="388" y="756" fill="#FFD700" font-weight="bold" font-size="10">id 🔑</text>
<line x1="380" y1="761" x2="580" y2="761" stroke="#333355" stroke-width="0.5"/>
<text x="388" y="774" fill="#a8e8e8" font-weight="normal" font-size="10">name</text>
<line x1="380" y1="779" x2="580" y2="779" stroke="#333355" stroke-width="0.5"/>
<text x="388" y="792" fill="#a8e8e8" font-weight="normal" font-size="10">age_min</text>
<line x1="380" y1="797" x2="580" y2="797" stroke="#333355" stroke-width="0.5"/>
<text x="388" y="810" fill="#a8e8e8" font-weight="normal" font-size="10">age_max</text>
<line x1="380" y1="815" x2="580" y2="815" stroke="#333355" stroke-width="0.5"/>
<text x="388" y="828" fill="#88CCFF" font-weight="normal" font-size="10">created_by →</text>
<rect x="380" y="863" width="200" height="136" rx="5" fill="#1a1a2e" stroke="#2d7a7a" stroke-width="1.5"/>
<rect x="380" y="863" width="200" height="28" rx="5" fill="#2d7a7a"/>
<rect x="380" y="886" width="200" height="5" fill="#2d7a7a"/>
<text x="480" y="881" text-anchor="middle" fill="white" font-weight="bold" font-size="10">contents</text>
<text x="388" y="904" fill="#FFD700" font-weight="bold" font-size="10">id 🔑</text>
<line x1="380" y1="909" x2="580" y2="909" stroke="#333355" stroke-width="0.5"/>
<text x="388" y="922" fill="#88CCFF" font-weight="normal" font-size="10">category_id →</text>
<line x1="380" y1="927" x2="580" y2="927" stroke="#333355" stroke-width="0.5"/>
<text x="388" y="940" fill="#a8e8e8" font-weight="normal" font-size="10">title</text>
<line x1="380" y1="945" x2="580" y2="945" stroke="#333355" stroke-width="0.5"/>
<text x="388" y="958" fill="#a8e8e8" font-weight="normal" font-size="10">type</text>
<line x1="380" y1="963" x2="580" y2="963" stroke="#333355" stroke-width="0.5"/>
<text x="388" y="976" fill="#a8e8e8" font-weight="normal" font-size="10">url</text>
<line x1="380" y1="981" x2="580" y2="981" stroke="#333355" stroke-width="0.5"/>
<text x="388" y="994" fill="#88CCFF" font-weight="normal" font-size="10">created_by →</text>
<rect x="380" y="975" width="200" height="118" rx="5" fill="#1a1a2e" stroke="#2d7a7a" stroke-width="1.5"/>
<rect x="380" y="975" width="200" height="28" rx="5" fill="#2d7a7a"/>
<rect x="380" y="998" width="200" height="5" fill="#2d7a7a"/>
<text x="480" y="993" text-anchor="middle" fill="white" font-weight="bold" font-size="10">quizzes</text>
<text x="388" y="1016" fill="#FFD700" font-weight="bold" font-size="10">id 🔑</text>
<line x1="380" y1="1021" x2="580" y2="1021" stroke="#333355" stroke-width="0.5"/>
<text x="388" y="1034" fill="#88CCFF" font-weight="normal" font-size="10">content_id →</text>
<line x1="380" y1="1039" x2="580" y2="1039" stroke="#333355" stroke-width="0.5"/>
<text x="388" y="1052" fill="#88CCFF" font-weight="normal" font-size="10">category_id →</text>
<line x1="380" y1="1057" x2="580" y2="1057" stroke="#333355" stroke-width="0.5"/>
<text x="388" y="1070" fill="#a8e8e8" font-weight="normal" font-size="10">title</text>
<line x1="380" y1="1075" x2="580" y2="1075" stroke="#333355" stroke-width="0.5"/>
<text x="388" y="1088" fill="#88CCFF" font-weight="normal" font-size="10">created_by →</text>
<rect x="690" y="715" width="200" height="118" rx="5" fill="#1a1a2e" stroke="#555555" stroke-width="1.5"/>
<rect x="690" y="715" width="200" height="28" rx="5" fill="#555555"/>
<rect x="690" y="738" width="200" height="5" fill="#555555"/>
<text x="790" y="733" text-anchor="middle" fill="white" font-weight="bold" font-size="10">notifications</text>
<text x="698" y="756" fill="#FFD700" font-weight="bold" font-size="10">id 🔑</text>
<line x1="690" y1="761" x2="890" y2="761" stroke="#333355" stroke-width="0.5"/>
<text x="698" y="774" fill="#88CCFF" font-weight="normal" font-size="10">user_id →</text>
<line x1="690" y1="779" x2="890" y2="779" stroke="#333355" stroke-width="0.5"/>
<text x="698" y="792" fill="#88CCFF" font-weight="normal" font-size="10">child_id →</text>
<line x1="690" y1="797" x2="890" y2="797" stroke="#333355" stroke-width="0.5"/>
<text x="698" y="810" fill="#cccccc" font-weight="normal" font-size="10">type</text>
<line x1="690" y1="815" x2="890" y2="815" stroke="#333355" stroke-width="0.5"/>
<text x="698" y="828" fill="#cccccc" font-weight="normal" font-size="10">is_read</text>
<rect x="795" y="715" width="200" height="100" rx="5" fill="#1a1a2e" stroke="#555555" stroke-width="1.5"/>
<rect x="795" y="715" width="200" height="28" rx="5" fill="#555555"/>
<rect x="795" y="738" width="200" height="5" fill="#555555"/>
<text x="895" y="733" text-anchor="middle" fill="white" font-weight="bold" font-size="10">privacy_settings</text>
<text x="803" y="756" fill="#FFD700" font-weight="bold" font-size="10">id 🔑</text>
<line x1="795" y1="761" x2="995" y2="761" stroke="#333355" stroke-width="0.5"/>
<text x="803" y="774" fill="#88CCFF" font-weight="normal" font-size="10">user_id →</text>
<line x1="795" y1="779" x2="995" y2="779" stroke="#333355" stroke-width="0.5"/>
<text x="803" y="792" fill="#cccccc" font-weight="normal" font-size="10">data_sharing</text>
<line x1="795" y1="797" x2="995" y2="797" stroke="#333355" stroke-width="0.5"/>
<text x="803" y="810" fill="#cccccc" font-weight="normal" font-size="10">analytics_opt_in</text>
<rect x="690" y="845" width="200" height="118" rx="5" fill="#1a1a2e" stroke="#555555" stroke-width="1.5"/>
<rect x="690" y="845" width="200" height="28" rx="5" fill="#555555"/>
<rect x="690" y="868" width="200" height="5" fill="#555555"/>
<text x="790" y="863" text-anchor="middle" fill="white" font-weight="bold" font-size="10">support_tickets</text>
<text x="698" y="886" fill="#FFD700" font-weight="bold" font-size="10">id 🔑</text>
<line x1="690" y1="891" x2="890" y2="891" stroke="#333355" stroke-width="0.5"/>
<text x="698" y="904" fill="#88CCFF" font-weight="normal" font-size="10">user_id →</text>
<line x1="690" y1="909" x2="890" y2="909" stroke="#333355" stroke-width="0.5"/>
<text x="698" y="922" fill="#88CCFF" font-weight="normal" font-size="10">assigned_admin_id →</text>
<line x1="690" y1="927" x2="890" y2="927" stroke="#333355" stroke-width="0.5"/>
<text x="698" y="940" fill="#cccccc" font-weight="normal" font-size="10">subject</text>
<line x1="690" y1="945" x2="890" y2="945" stroke="#333355" stroke-width="0.5"/>
<text x="698" y="958" fill="#cccccc" font-weight="normal" font-size="10">status</text>
<rect x="795" y="845" width="200" height="118" rx="5" fill="#1a1a2e" stroke="#555555" stroke-width="1.5"/>
<rect x="795" y="845" width="200" height="28" rx="5" fill="#555555"/>
<rect x="795" y="868" width="200" height="5" fill="#555555"/>
<text x="895" y="863" text-anchor="middle" fill="white" font-weight="bold" font-size="10">support_ticket_messages</text>
<text x="803" y="886" fill="#FFD700" font-weight="bold" font-size="10">id 🔑</text>
<line x1="795" y1="891" x2="995" y2="891" stroke="#333355" stroke-width="0.5"/>
<text x="803" y="904" fill="#88CCFF" font-weight="normal" font-size="10">ticket_id →</text>
<line x1="795" y1="909" x2="995" y2="909" stroke="#333355" stroke-width="0.5"/>
<text x="803" y="922" fill="#88CCFF" font-weight="normal" font-size="10">admin_user_id →</text>
<line x1="795" y1="927" x2="995" y2="927" stroke="#333355" stroke-width="0.5"/>
<text x="803" y="940" fill="#88CCFF" font-weight="normal" font-size="10">user_id →</text>
<line x1="795" y1="945" x2="995" y2="945" stroke="#333355" stroke-width="0.5"/>
<text x="803" y="958" fill="#cccccc" font-weight="normal" font-size="10">body</text>
<rect x="690" y="939" width="200" height="100" rx="5" fill="#1a1a2e" stroke="#555555" stroke-width="1.5"/>
<rect x="690" y="939" width="200" height="28" rx="5" fill="#555555"/>
<rect x="690" y="962" width="200" height="5" fill="#555555"/>
<text x="790" y="957" text-anchor="middle" fill="white" font-weight="bold" font-size="10">system_settings</text>
<text x="698" y="980" fill="#FFD700" font-weight="bold" font-size="10">id 🔑</text>
<line x1="690" y1="985" x2="890" y2="985" stroke="#333355" stroke-width="0.5"/>
<text x="698" y="998" fill="#cccccc" font-weight="normal" font-size="10">key</text>
<line x1="690" y1="1003" x2="890" y2="1003" stroke="#333355" stroke-width="0.5"/>
<text x="698" y="1016" fill="#cccccc" font-weight="normal" font-size="10">value</text>
<line x1="690" y1="1021" x2="890" y2="1021" stroke="#333355" stroke-width="0.5"/>
<text x="698" y="1034" fill="#88CCFF" font-weight="normal" font-size="10">updated_by →</text>
<rect x="1120.0" y="1103" width="160" height="80" rx="6" fill="#1a1a2e" stroke="#445" stroke-width="1"/>
<text x="1128.0" y="1119" fill="#aaa" font-size="10" font-weight="bold">LEGEND</text>
<text x="1128.0" y="1135" fill="#FFD700" font-size="10">field 🔑  Primary Key</text>
<text x="1128.0" y="1151" fill="#88CCFF" font-size="10">field →   Foreign Key</text>
<line x1="1128.0" y1="1163" x2="1180.0" y2="1163" stroke="#445566" stroke-width="1.5" stroke-dasharray="4,3" marker-end="url(#arr)"/>
<text x="1190.0" y="1167" fill="#aaa" font-size="10">FK relation</text>
<text x="1128.0" y="1179" fill="#666" font-size="9">KinderWorld DB — v2 — 2026</text>
</svg>